HIERARCHY
ROOT Hips
{
	OFFSET 0.00 0.00 0.00
	CHANNELS 6 Xposition Yposition Zposition Xrotation Yrotation Zrotation
	JOINT LeftUpLeg
	{
		OFFSET 2.83210 0.00000 0.00000
		CHANNELS 3 Xrotation Yrotation Zrotation
		JOINT LeftLeg
		{
			OFFSET 0.00000 -16.27150 0.00000
			CHANNELS 3 Xrotation Yrotation Zrotation
			JOINT LeftFoot
			{
				OFFSET 0.00000 -14.95190 0.00000
				CHANNELS 3 Xrotation Yrotation Zrotation
				JOINT LeftToeBase
				{
					OFFSET 0.00000 -1.07991 4.03030
					CHANNELS 3 Xrotation Yrotation Zrotation
					End Site
					{
						OFFSET 0.00000 0.00000 2.95275
					}
				}
			}
		}
	}
	JOINT RightUpLeg
	{
		OFFSET -2.83210 0.00000 0.00000
		CHANNELS 3 Xrotation Yrotation Zrotation
		JOINT RightLeg
		{
			OFFSET 0.00000 -16.27150 0.00000
			CHANNELS 3 Xrotation Yrotation Zrotation
			JOINT RightFoot
			{
				OFFSET 0.00000 -14.95190 0.00000
				CHANNELS 3 Xrotation Yrotation Zrotation
				JOINT RightToeBase
				{
					OFFSET 0.00000 -1.07991 4.03030
					CHANNELS 3 Xrotation Yrotation Zrotation
					End Site
					{
						OFFSET 0.00000 0.00000 2.95275
					}
				}
			}
		}
	}
	JOINT Spine
	{
		OFFSET 0.00000 0.03937 0.00000
		CHANNELS 3 Xrotation Yrotation Zrotation
		JOINT Spine1
		{
			OFFSET 0.00000 8.01054 0.00000
			CHANNELS 3 Xrotation Yrotation Zrotation
			JOINT Neck
			{
				OFFSET 0.00000 8.21888 0.00000
				CHANNELS 3 Xrotation Yrotation Zrotation
				JOINT Head
				{
					OFFSET 0.00000 3.25664 0.00000
					CHANNELS 3 Xrotation Yrotation Zrotation
					End Site
					{
						OFFSET 0.00000 4.52755 0.00000
					}
				}
			}
			JOINT LeftShoulder
			{
				OFFSET 0.00000 8.21888 0.00000
				CHANNELS 3 Xrotation Yrotation Zrotation
				JOINT LeftArm
				{
					OFFSET 6.52904 -0.00002 0.00000
					CHANNELS 3 Xrotation Yrotation Zrotation
					JOINT LeftForeArm
					{
						OFFSET 10.44840 -0.00004 0.00000
						CHANNELS 3 Xrotation Yrotation Zrotation
						JOINT LeftHand
						{
							OFFSET 8.94727 -0.00003 0.00000
							CHANNELS 3 Xrotation Yrotation Zrotation
							JOINT LeftHandThumb
							{
								OFFSET 0.00000 0.00000 0.00000
								CHANNELS 3 Xrotation Yrotation Zrotation
								End Site
								{
									OFFSET 0.00000 0.00000 3.93700
								}
							}
							JOINT L_Wrist_End
							{
								OFFSET 3.93700 -0.00001 0.00000
								CHANNELS 3 Xrotation Yrotation Zrotation
							}
						}
					}
				}
			}
			JOINT RightShoulder
			{
				OFFSET 0.00000 8.21888 0.00000
				CHANNELS 3 Xrotation Yrotation Zrotation
				JOINT RightArm
				{
					OFFSET -6.52904 -0.00002 0.00000
					CHANNELS 3 Xrotation Yrotation Zrotation
					JOINT RightForeArm
					{
						OFFSET -10.44840 -0.00004 0.00000
						CHANNELS 3 Xrotation Yrotation Zrotation
						JOINT RightHand
						{
							OFFSET -8.94727 -0.00003 0.00000
							CHANNELS 3 Xrotation Yrotation Zrotation
							JOINT RightHandThumb
							{
								OFFSET 0.00000 0.00000 0.00000
								CHANNELS 3 Xrotation Yrotation Zrotation
								End Site
								{
									OFFSET 0.00000 0.00000 3.93700
								}
							}
							JOINT R_Wrist_End
							{
								OFFSET -5.39369 -0.00002 0.00000
								CHANNELS 3 Xrotation Yrotation Zrotation
							}
						}
					}
				}
			}
		}
	}
}
MOTION
Frames: 19
Frame Time: 0.008333
 5.5892 27.3966 -8.6600 -83.7047 1.5032 -91.3866 36.3723 21.3154 18.3836 67.4204 -0.0000 0.0000 -28.9753 38.3274 25.2512 18.4257 0.0000 0.0000 -61.2413 -9.9338 0.9945 72.2777 -0.0000 -0.0000 39.9018 -16.1196 19.8056 23.0570 0.0000 0.0000 0.8129 -2.4746 -12.4761 -25.7250 -12.2196 12.7430 -38.5482 15.7246 -7.3128 -60.0785 -30.0590 -13.1673 -35.5730 27.2822 33.8434 -116.0590 -33.7616 -15.8904 -0.0000 -10.1697 -0.0000 6.1696 -13.5831 75.8702 0.0000 0.0000 0.0000 0.0000 0.0000 0.0000 -27.6511 -21.5721 -32.4840 -123.8635 29.1396 10.6324 -0.0001 19.2242 0.0000 11.7549 5.4504 -102.1419 -0.0000 0.0000 0.0000 -0.0000 0.0000 0.0000
 5.5928 27.3595 -8.6541 -83.7495 1.1394 -91.4839 35.8330 21.4083 18.4821 67.6514 -0.0000 0.0000 -29.0803 38.3491 25.4628 18.2257 0.0000 -0.0000 -62.7753 -9.7621 1.1791 70.3608 0.0000 0.0000 40.1370 -16.5337 20.2675 23.1577 0.0000 0.0000 0.7291 -2.5095 -12.9043 -25.9232 -12.8264 13.6307 -38.2591 15.8469 -7.4376 -60.2637 -29.9393 -12.8039 -35.7799 27.2610 33.7994 -115.4769 -34.2525 -15.7211 -0.0000 -9.8176 -0.0000 6.1628 -13.6284 76.2224 0.0000 0.0000 -0.0000 0.0000 0.0000 -0.0000 -27.6235 -20.9851 -32.6623 -123.9823 29.0766 10.7789 -0.0001 19.2481 0.0000 12.0345 5.5683 -101.9571 -0.0000 0.0000 0.0000 -0.0000 0.0000 0.0000
 5.5884 27.3619 -8.6263 -83.6851 1.3002 -91.5366 36.0351 21.3397 18.4533 67.6623 -0.0000 0.0000 -29.1385 38.4063 25.2213 18.5132 -0.0000 0.0000 -63.7681 -9.6516 1.1402 68.6100 0.0000 0.0000 40.1328 -16.7468 20.7055 23.1837 0.0000 0.0000 0.8261 -2.5216 -12.9004 -25.8389 -12.8755 13.7564 -38.3389 15.8105 -7.4272 -60.3677 -29.9219 -12.8734 -35.7768 27.2221 33.7883 -115.4883 -34.2818 -15.7246 -0.0000 -9.7120 -0.0000 6.2939 -13.5804 76.3255 0.0000 0.0000 -0.0000 0.0000 0.0000 -0.0000 -27.6031 -21.0187 -32.6741 -123.8637 29.1165 10.7746 -0.0001 19.1990 0.0000 11.6298 5.1543 -102.1533 0.0000 -0.0000 -0.0000 0.0000 -0.0000 -0.0000
 5.6052 27.3191 -8.6095 -83.5980 0.8217 -91.6266 35.3476 21.2531 18.5534 67.9088 -0.0000 0.0000 -29.3154 38.4824 25.5703 18.4968 0.0000 0.0000 -65.2361 -9.5627 1.1249 66.4287 0.0000 0.0000 40.3691 -17.0487 21.2907 23.1994 0.0000 -0.0000 0.7603 -2.5979 -13.4813 -26.1032 -13.7134 14.9624 -38.5444 16.0459 -7.3586 -59.9143 -29.5785 -12.5789 -36.0326 27.1100 33.6444 -114.2531 -34.8700 -15.1236 -0.0000 -9.3591 -0.0000 6.1795 -13.6084 76.3879 0.0000 -0.0000 0.0000 0.0000 -0.0000 0.0000 -27.5329 -20.2005 -33.0771 -123.8533 29.0973 10.6403 -0.0001 19.1984 0.0000 11.9029 5.4895 -102.1815 -0.0000 0.0000 -0.0000 -0.0000 0.0000 -0.0000
 5.5974 27.3168 -8.5845 -83.5444 0.9912 -91.6668 35.5537 21.2457 18.5316 67.8808 0.0000 0.0000 -29.5423 38.5137 25.8082 18.3590 0.0000 -0.0000 -66.2251 -9.5488 1.0720 64.7865 -0.0000 0.0000 40.0656 -17.5709 21.2731 23.3130 0.0000 0.0000 0.8631 -2.6146 -13.4841 -26.0220 -13.7391 15.0461 -38.5563 16.0265 -7.3881 -60.0805 -29.6241 -12.6012 -36.0108 27.0579 33.5857 -114.2831 -34.8940 -15.1555 -0.0000 -9.4552 -0.0000 6.2919 -13.4069 76.4894 0.0000 0.0000 0.0000 0.0000 0.0000 0.0000 -27.4961 -20.1945 -33.0229 -123.7420 29.1029 10.6316 -0.0001 19.3106 0.0000 11.6803 5.3750 -102.1219 -0.0000 0.0000 0.0000 -0.0000 0.0000 0.0000
 5.5859 27.3060 -8.5544 -83.5228 1.1199 -91.7303 35.6653 21.2225 18.5021 68.0092 -0.0000 0.0000 -29.5846 38.5787 25.8571 18.3409 0.0000 -0.0000 -67.1876 -9.4740 1.0385 63.0009 -0.0000 0.0000 39.9549 -17.8425 21.6556 23.4224 -0.0000 0.0000 0.9585 -2.6221 -13.4516 -25.9389 -13.7942 15.1934 -38.5373 16.0081 -7.4497 -60.2902 -29.6553 -12.5803 -36.0377 26.9787 33.5158 -114.4006 -34.9425 -15.2170 -0.0000 -9.5221 -0.0000 6.4909 -13.4228 76.6700 0.0000 0.0000 -0.0000 0.0000 0.0000 -0.0000 -27.4668 -20.1069 -33.0467 -123.7740 29.0827 10.6442 -0.0001 19.3573 0.0000 11.6456 5.2584 -102.1897 -0.0000 0.0000 -0.0000 -0.0000 0.0000 -0.0000
 5.5971 27.2694 -8.5355 -83.5449 0.5902 -91.8621 35.0242 21.2577 18.5494 68.1412 -0.0000 -0.0000 -29.7411 38.6489 25.8939 18.4015 -0.0000 0.0000 -68.6663 -9.4665 1.0937 60.9384 -0.0000 -0.0000 39.9793 -18.2267 22.1677 23.4851 0.0000 -0.0000 0.7711 -2.6174 -13.8033 -26.2697 -14.3922 16.0715 -37.8485 15.9678 -8.0892 -60.6234 -29.7905 -11.8082 -36.2360 26.9439 33.1685 -113.7230 -35.6318 -15.2291 -0.0000 -9.1640 -0.0000 6.4215 -13.3454 76.4136 -0.0000 -0.0000 0.0000 -0.0000 -0.0000 0.0000 -27.4466 -19.4389 -33.4831 -123.4617 28.9096 10.4296 -0.0001 19.6214 0.0000 11.4244 4.9166 -102.4172 0.0000 0.0000 0.0000 0.0000 0.0000 0.0000
 5.5912 27.2632 -8.5110 -83.4869 0.7417 -91.8846 35.1609 21.2732 18.5456 68.1499 0.0000 0.0000 -30.0423 38.6360 26.5689 18.3837 0.0000 0.0000 -69.5189 -9.4765 1.0187 59.0990 -0.0000 0.0000 39.7228 -18.7155 21.7336 23.3695 -0.0000 0.0000 0.8836 -2.6271 -13.8257 -26.1817 -14.3959 16.1397 -37.9253 15.9666 -8.0651 -60.7977 -29.7620 -11.8651 -36.2304 26.9078 33.1442 -113.7289 -35.6382 -15.2003 -0.0000 -9.2102 -0.0000 6.5564 -13.3225 76.7653 0.0000 0.0000 0.0000 0.0000 0.0000 0.0000 -27.4501 -19.4335 -33.4554 -123.4403 28.9157 10.4210 -0.0001 19.6479 0.0000 11.6489 5.4019 -102.2021 0.0000 -0.0000 -0.0000 0.0000 -0.0000 -0.0000
 5.5838 27.2579 -8.4864 -83.4484 0.8709 -91.9232 35.2870 21.2773 18.5367 68.1844 -0.0000 0.0000 -30.1743 38.6672 26.7249 18.4310 -0.0000 -0.0000 -70.3789 -9.4446 0.9596 57.2859 0.0000 0.0000 39.4653 -19.0588 21.8868 23.3153 0.0000 0.0000 0.9836 -2.6331 -13.8278 -26.1110 -14.4100 16.2241 -37.9832 15.9706 -8.0407 -60.9376 -29.7331 -11.9084 -36.2346 26.8955 33.1160 -113.7023 -35.6684 -15.1823 -0.0000 -9.2343 -0.0000 6.5569 -13.2082 76.9338 0.0000 0.0000 -0.0000 0.0000 0.0000 -0.0000 -27.4554 -19.4463 -33.4492 -123.4069 28.9296 10.4273 -0.0001 19.6070 0.0000 11.5694 5.3963 -102.2397 -0.0000 0.0000 0.0000 -0.0000 0.0000 0.0000
 5.5954 27.2251 -8.4577 -83.4001 0.4534 -92.0431 34.7231 21.2032 18.5688 68.3947 -0.0000 0.0000 -30.2823 38.8458 27.1075 18.0087 0.0000 -0.0000 -71.6667 -9.5434 0.8848 55.2516 -0.0000 0.0000 39.3329 -19.4094 21.9015 23.3321 0.0000 0.0000 0.9064 -2.6168 -14.1170 -26.4039 -14.9198 17.0518 -38.1194 15.9918 -7.8438 -60.6240 -29.1060 -11.8671 -36.2745 26.9158 32.7603 -112.5367 -36.1806 -14.6728 -0.0000 -9.0146 -0.0000 6.0523 -13.2804 76.8670 -0.0000 -0.0000 0.0000 -0.0000 -0.0000 0.0000 -27.5151 -18.9849 -33.8013 -123.5615 29.0621 10.6344 -0.0001 19.4070 0.0000 11.8748 5.6924 -102.5091 -0.0000 0.0000 0.0000 -0.0000 0.0000 0.0000
 5.5896 27.2238 -8.4371 -83.3625 0.5796 -92.0641 34.8628 21.2440 18.5917 68.3974 -0.0000 0.0000 -30.4270 38.7506 26.9206 18.5680 0.0000 0.0000 -72.4708 -9.4932 0.8323 53.4566 -0.0000 0.0000 39.1987 -19.6909 22.2693 23.0444 0.0000 0.0000 0.9998 -2.6299 -14.1580 -26.3249 -14.9331 17.1170 -38.1068 16.0080 -7.8913 -60.8409 -29.1949 -11.8519 -36.2984 26.8849 32.8066 -112.6718 -36.2157 -14.7262 -0.0000 -8.8696 -0.0000 6.2870 -13.1985 77.1338 0.0000 -0.0000 0.0000 0.0000 -0.0000 0.0000 -27.5155 -19.0111 -33.7912 -123.4750 29.0510 10.5968 -0.0001 19.3256 0.0000 11.6829 5.5713 -102.2872 -0.0000 -0.0000 0.0000 -0.0000 -0.0000 0.0000
 5.5822 27.2248 -8.4144 -83.3340 0.6930 -92.0955 34.9822 21.2845 18.5988 68.4078 -0.0000 0.0000 -30.5247 38.7532 27.0965 18.4474 0.0000 0.0000 -73.2753 -9.4533 0.7873 51.7028 0.0000 0.0000 38.9706 -19.9825 22.3441 22.9452 0.0000 0.0000 1.0717 -2.6344 -14.1766 -26.2745 -14.9502 17.1901 -38.1267 16.0291 -7.9162 -60.9211 -29.2501 -11.8383 -36.3014 26.8611 32.8063 -112.7146 -36.2838 -14.7839 -0.0000 -8.7807 -0.0000 6.3779 -13.1203 77.3362 0.0000 -0.0000 0.0000 0.0000 -0.0000 0.0000 -27.5045 -18.9902 -33.7998 -123.4537 29.0588 10.6092 -0.0001 19.2621 0.0000 11.6395 5.5718 -102.2964 0.0000 0.0000 -0.0000 0.0000 0.0000 -0.0000
 5.5918 27.2058 -8.3900 -83.3649 0.3150 -92.2160 34.5199 21.3480 18.6346 68.5073 -0.0000 0.0000 -30.5314 38.8514 27.3877 17.7318 -0.0000 0.0000 -74.4561 -9.5100 0.8026 49.7547 0.0000 0.0000 38.9776 -20.2097 22.1428 22.9120 0.0000 0.0000 0.9663 -2.6630 -14.4679 -26.5977 -15.4899 17.9590 -38.0334 16.2268 -8.3366 -60.4108 -29.4510 -11.1807 -36.4879 26.7357 32.4592 -112.0294 -37.1870 -14.8010 -0.0000 -8.1952 -0.0000 6.3579 -13.3071 77.0569 0.0000 -0.0000 0.0000 0.0000 -0.0000 0.0000 -27.3868 -18.2528 -34.1264 -123.4014 29.0542 10.5412 -0.0001 19.2849 0.0000 11.9975 5.8620 -102.4150 0.0000 0.0000 -0.0000 0.0000 0.0000 -0.0000
 5.5877 27.2072 -8.3680 -83.3250 0.4287 -92.2384 34.6500 21.3919 18.6545 68.4995 -0.0000 0.0000 -30.6759 38.7666 27.1152 18.6519 0.0000 0.0000 -75.1672 -9.3920 0.7650 47.9239 -0.0000 0.0000 39.0083 -20.3286 22.3489 22.8605 0.0000 -0.0000 1.0400 -2.6640 -14.5011 -26.5253 -15.5004 18.0296 -38.0284 16.2129 -8.3355 -60.6138 -29.5252 -11.2359 -36.4972 26.7175 32.5058 -112.0358 -37.2143 -14.7826 -0.0000 -8.0524 -0.0000 6.3915 -13.2771 77.3947 0.0000 0.0000 -0.0000 0.0000 0.0000 -0.0000 -27.3944 -18.2830 -34.1489 -123.3672 29.0662 10.5422 -0.0001 19.1465 0.0000 11.7986 5.6732 -102.3129 0.0000 0.0000 -0.0000 0.0000 0.0000 -0.0000
 5.5932 27.1962 -8.3512 -83.0601 0.3385 -92.2734 34.3799 21.2359 18.8815 68.6653 0.0000 -0.0000 -30.6603 38.7655 26.9853 18.6927 0.0000 0.0000 -76.0269 -9.2830 0.5265 45.9959 -0.0000 0.0000 39.1700 -20.3114 22.4588 22.7720 -0.0000 0.0000 0.7470 -2.2832 -14.7358 -25.9293 -15.3755 18.3416 -38.4057 15.6324 -8.8476 -60.8314 -29.3866 -11.2723 -36.6166 26.3877 31.6946 -111.5331 -37.4930 -14.4450 -0.0000 -8.0182 -0.0000 5.9648 -13.3542 77.6514 0.0000 0.0000 -0.0000 0.0000 0.0000 -0.0000 -28.0868 -18.7064 -34.5913 -123.4856 29.3184 10.6719 -0.0001 18.8136 0.0000 12.0356 5.8080 -102.7143 0.0000 -0.0000 0.0000 0.0000 -0.0000 0.0000
 5.5932 27.1967 -8.3422 -83.0469 0.2276 -92.4104 34.2180 21.3774 19.0444 68.6609 0.0000 0.0000 -30.7676 38.7197 27.3007 18.2406 0.0000 0.0000 -76.8132 -9.1257 0.6016 43.9760 -0.0000 0.0000 39.4771 -20.2417 22.5342 22.8316 -0.0000 0.0000 -0.2845 -1.4644 -14.7372 -24.0080 -14.9179 18.4108 -39.9304 15.3938 -10.0740 -60.4883 -30.4386 -10.9213 -37.5856 26.4055 30.7120 -112.1102 -37.9516 -15.2493 -0.0000 -7.8292 -0.0000 5.8102 -13.3790 77.4089 0.0000 -0.0000 0.0000 0.0000 -0.0000 0.0000 -29.5012 -19.8792 -34.4236 -124.0140 29.5757 11.6157 -0.0001 18.7074 0.0000 11.9290 5.5836 -102.7296 -0.0000 0.0000 0.0000 -0.0000 0.0000 0.0000
 5.5899 27.2081 -8.3306 -83.0055 0.2684 -92.4789 34.2365 21.4792 19.1627 68.6339 -0.0000 -0.0000 -30.8457 38.5908 27.5547 18.5159 -0.0000 0.0000 -77.4889 -8.9216 0.6096 42.1166 -0.0000 0.0000 39.7895 -20.0961 22.8333 22.5429 0.0000 -0.0000 -1.4363 -0.7045 -14.4598 -21.6639 -14.2499 17.8564 -41.9283 15.3966 -10.5019 -60.3627 -31.2552 -11.2917 -39.0458 26.7628 30.3059 -113.6232 -37.7502 -16.9316 -0.0000 -8.0764 -0.0000 6.0454 -13.3369 77.5426 -0.0000 -0.0000 -0.0000 -0.0000 -0.0000 -0.0000 -31.1523 -21.2035 -33.8366 -124.5081 29.8322 12.6551 -0.0001 18.5546 0.0000 11.7713 5.6084 -102.8181 -0.0000 0.0000 -0.0000 -0.0000 0.0000 -0.0000
 5.5950 27.2173 -8.3171 -82.8992 0.3149 -92.5361 34.2922 21.3562 19.1977 68.6071 0.0000 -0.0000 -30.5918 38.7504 27.1471 17.9396 -0.0000 0.0000 -78.0795 -8.6478 0.5604 40.2740 -0.0000 0.0000 39.6539 -19.9874 23.2902 22.9698 0.0000 0.0000 -2.3642 -0.0594 -14.0182 -19.8475 -13.5180 17.0248 -43.9237 15.2945 -10.8874 -59.8762 -32.0204 -11.7531 -40.2159 26.8170 29.8684 -115.5276 -37.3072 -18.7555 -0.0000 -8.4548 -0.0000 6.6442 -13.0754 77.5875 -0.0000 0.0000 -0.0000 -0.0000 0.0000 -0.0000 -32.5458 -22.5674 -33.4470 -124.8137 29.9449 13.4393 -0.0001 18.5811 0.0000 11.7324 5.8617 -102.7562 -0.0000 -0.0000 0.0000 -0.0000 -0.0000 0.0000
 5.5918 27.2390 -8.2900 -82.8060 0.3578 -92.5832 34.3881 21.4296 19.2648 68.4713 -0.0000 0.0000 -30.8779 38.6494 27.5763 18.2108 0.0000 0.0000 -78.7184 -8.4443 0.4600 38.5878 -0.0000 0.0000 39.4953 -19.8033 23.0921 22.7791 -0.0000 0.0000 -3.2578 0.5292 -13.4066 -18.2568 -12.7682 15.9533 -45.5447 15.0808 -11.3153 -59.5273 -32.7464 -12.1285 -41.0780 27.0116 29.5653 -116.8098 -36.7530 -20.1154 -0.0000 -8.9284 -0.0000 6.7495 -13.0277 77.6680 -0.0000 0.0000 -0.0000 -0.0000 0.0000 -0.0000 -33.7459 -23.8591 -33.1797 -125.1085 29.9598 14.0844 -0.0001 18.5110 0.0000 11.7461 5.6648 -102.8849 0.0000 -0.0000 0.0000 0.0000 -0.0000 0.0000
